<?xml version="1.0" standalone="no"?>
<!DOCTYPE svg PUBLIC "-//W3C//DTD SVG 20010904//EN"
 "http://www.w3.org/TR/2001/REC-SVG-20010904/DTD/svg10.dtd">
<svg version="1.0" xmlns="http://www.w3.org/2000/svg"
 width="260.000000pt" height="260.000000pt" viewBox="0 0 260.000000 260.000000"
 preserveAspectRatio="xMidYMid meet">
<metadata>
Created by potrace 1.14, written by Peter Selinger 2001-2017
</metadata>
<g transform="translate(0.000000,260.000000) scale(0.100000,-0.100000)"
fill="#000000" stroke="none">
<path d="M2358 2573 c-7 -15 -26 -31 -43 -36 -41 -13 -55 -26 -55 -49 0 -34
-30 -77 -70 -103 -25 -16 -49 -43 -65 -74 -17 -34 -37 -57 -64 -72 -27 -15
-47 -36 -61 -66 -14 -30 -35 -52 -68 -73 -33 -20 -54 -43 -69 -73 -15 -31 -35
-52 -63 -68 -23 -13 -51 -41 -65 -65 -13 -23 -47 -58 -75 -78 -28 -20 -58 -52
-67 -72 -10 -21 -36 -46 -65 -64 -30 -19 -55 -44 -68 -70 -13 -25 -37 -51 -64
-67 -24 -14 -55 -45 -69 -69 -14 -24 -43 -54 -64 -67 -22 -14 -51 -41 -66 -61
-36 -47 -67 -48 -102 -2 -14 19 -45 46 -68 62 -59 38 -135 120 -162 174 -13
26 -48 67 -78 93 -31 26 -65 63 -77 82 -11 19 -37 44 -56 56 -19 12 -53 45
-74 74 -21 29 -54 62 -72 73 -19 12 -44 39 -56 61 -13 23 -43 55 -68 71 -28
20 -53 49 -69 80 -36 71 -65 83 -200 84 l-110 1 -3 -1127 -2 -1128 1300 0
1300 0 0 1300 0 1300 -114 0 c-115 0 -115 0 -128 -27z"/>
</g>
</svg>
